<mxfile host="app.diagrams.net" agent="Mozilla/5.0 (Windows NT 10.0; Win64; x64) AppleWebKit/537.36 (KHTML, like Gecko) Chrome/136.0.0.0 Safari/537.36" version="26.2.15">
  <diagram name="Page-1" id="6li-C0uH8JSMtr6iD9Hp">
    <mxGraphModel dx="872" dy="507" grid="1" gridSize="10" guides="1" tooltips="1" connect="1" arrows="1" fold="1" page="1" pageScale="1" pageWidth="827" pageHeight="1169" math="0" shadow="0">
      <root>
        <mxCell id="0" />
        <mxCell id="1" parent="0" />
        <mxCell id="ST-d2-YdZwGzM8Qvo2rC-1" value="accounts" style="rounded=0;whiteSpace=wrap;html=1;fillColor=#dae8fc;strokeColor=#6c8ebf;" vertex="1" parent="1">
          <mxGeometry x="180" y="200" width="120" height="60" as="geometry" />
        </mxCell>
        <mxCell id="ST-d2-YdZwGzM8Qvo2rC-3" value="" style="endArrow=none;html=1;rounded=0;entryX=0.5;entryY=1;entryDx=0;entryDy=0;exitX=0;exitY=0;exitDx=0;exitDy=0;" edge="1" parent="1" source="ST-d2-YdZwGzM8Qvo2rC-7" target="ST-d2-YdZwGzM8Qvo2rC-6">
          <mxGeometry width="50" height="50" relative="1" as="geometry">
            <mxPoint x="450" y="240" as="sourcePoint" />
            <mxPoint x="500" y="190" as="targetPoint" />
          </mxGeometry>
        </mxCell>
        <mxCell id="ST-d2-YdZwGzM8Qvo2rC-4" value="" style="endArrow=none;html=1;rounded=0;exitX=0.25;exitY=0;exitDx=0;exitDy=0;" edge="1" parent="1" source="ST-d2-YdZwGzM8Qvo2rC-1" target="ST-d2-YdZwGzM8Qvo2rC-5">
          <mxGeometry width="50" height="50" relative="1" as="geometry">
            <mxPoint x="270" y="280" as="sourcePoint" />
            <mxPoint x="320" y="230" as="targetPoint" />
          </mxGeometry>
        </mxCell>
        <mxCell id="ST-d2-YdZwGzM8Qvo2rC-5" value="users_id" style="ellipse;whiteSpace=wrap;html=1;fillColor=#f8cecc;strokeColor=#b85450;" vertex="1" parent="1">
          <mxGeometry x="110" y="100" width="80" height="40" as="geometry" />
        </mxCell>
        <mxCell id="ST-d2-YdZwGzM8Qvo2rC-6" value="first_name" style="ellipse;whiteSpace=wrap;html=1;fillColor=#f8cecc;strokeColor=#b85450;" vertex="1" parent="1">
          <mxGeometry x="180" y="60" width="80" height="40" as="geometry" />
        </mxCell>
        <mxCell id="ST-d2-YdZwGzM8Qvo2rC-7" value="(full_name)" style="ellipse;whiteSpace=wrap;html=1;fillColor=#f8cecc;strokeColor=#b85450;" vertex="1" parent="1">
          <mxGeometry x="220" y="130" width="80" height="40" as="geometry" />
        </mxCell>
        <mxCell id="ST-d2-YdZwGzM8Qvo2rC-8" value="middle_name" style="ellipse;whiteSpace=wrap;html=1;fillColor=#f8cecc;strokeColor=#b85450;" vertex="1" parent="1">
          <mxGeometry x="270" y="60" width="80" height="40" as="geometry" />
        </mxCell>
        <mxCell id="ST-d2-YdZwGzM8Qvo2rC-9" value="last_name" style="ellipse;whiteSpace=wrap;html=1;fillColor=#f8cecc;strokeColor=#b85450;" vertex="1" parent="1">
          <mxGeometry x="310" y="100" width="80" height="40" as="geometry" />
        </mxCell>
        <mxCell id="ST-d2-YdZwGzM8Qvo2rC-10" value="" style="endArrow=none;html=1;rounded=0;entryX=0;entryY=1;entryDx=0;entryDy=0;exitX=0.5;exitY=0;exitDx=0;exitDy=0;" edge="1" parent="1" source="ST-d2-YdZwGzM8Qvo2rC-7" target="ST-d2-YdZwGzM8Qvo2rC-8">
          <mxGeometry width="50" height="50" relative="1" as="geometry">
            <mxPoint x="460" y="250" as="sourcePoint" />
            <mxPoint x="510" y="200" as="targetPoint" />
          </mxGeometry>
        </mxCell>
        <mxCell id="ST-d2-YdZwGzM8Qvo2rC-11" value="" style="endArrow=none;html=1;rounded=0;exitX=1;exitY=0.5;exitDx=0;exitDy=0;entryX=0;entryY=1;entryDx=0;entryDy=0;" edge="1" parent="1" source="ST-d2-YdZwGzM8Qvo2rC-7" target="ST-d2-YdZwGzM8Qvo2rC-9">
          <mxGeometry width="50" height="50" relative="1" as="geometry">
            <mxPoint x="440" y="250" as="sourcePoint" />
            <mxPoint x="331.7157287525381" y="155.85786437626905" as="targetPoint" />
          </mxGeometry>
        </mxCell>
        <mxCell id="ST-d2-YdZwGzM8Qvo2rC-13" value="" style="endArrow=none;html=1;rounded=0;entryX=0.5;entryY=1;entryDx=0;entryDy=0;exitX=0.5;exitY=0;exitDx=0;exitDy=0;" edge="1" parent="1" source="ST-d2-YdZwGzM8Qvo2rC-1" target="ST-d2-YdZwGzM8Qvo2rC-7">
          <mxGeometry width="50" height="50" relative="1" as="geometry">
            <mxPoint x="300" y="150" as="sourcePoint" />
            <mxPoint x="332" y="124" as="targetPoint" />
          </mxGeometry>
        </mxCell>
        <mxCell id="ST-d2-YdZwGzM8Qvo2rC-14" value="username" style="ellipse;whiteSpace=wrap;html=1;fillColor=#f8cecc;strokeColor=#b85450;" vertex="1" parent="1">
          <mxGeometry x="350" y="150" width="80" height="40" as="geometry" />
        </mxCell>
        <mxCell id="ST-d2-YdZwGzM8Qvo2rC-15" value="password" style="ellipse;whiteSpace=wrap;html=1;fillColor=#f8cecc;strokeColor=#b85450;" vertex="1" parent="1">
          <mxGeometry x="280" y="280" width="80" height="40" as="geometry" />
        </mxCell>
        <mxCell id="ST-d2-YdZwGzM8Qvo2rC-16" value="" style="endArrow=none;html=1;rounded=0;exitX=0.75;exitY=0;exitDx=0;exitDy=0;entryX=0;entryY=1;entryDx=0;entryDy=0;" edge="1" parent="1" source="ST-d2-YdZwGzM8Qvo2rC-1" target="ST-d2-YdZwGzM8Qvo2rC-14">
          <mxGeometry width="50" height="50" relative="1" as="geometry">
            <mxPoint x="220" y="210" as="sourcePoint" />
            <mxPoint x="174" y="149" as="targetPoint" />
          </mxGeometry>
        </mxCell>
        <mxCell id="ST-d2-YdZwGzM8Qvo2rC-17" value="" style="endArrow=none;html=1;rounded=0;exitX=0.75;exitY=1;exitDx=0;exitDy=0;entryX=0;entryY=0;entryDx=0;entryDy=0;" edge="1" parent="1" source="ST-d2-YdZwGzM8Qvo2rC-1" target="ST-d2-YdZwGzM8Qvo2rC-15">
          <mxGeometry width="50" height="50" relative="1" as="geometry">
            <mxPoint x="280" y="210" as="sourcePoint" />
            <mxPoint x="372" y="194" as="targetPoint" />
          </mxGeometry>
        </mxCell>
        <mxCell id="ST-d2-YdZwGzM8Qvo2rC-18" value="status(if active, inactive or pending acceptance pa ang account" style="ellipse;whiteSpace=wrap;html=1;fillColor=#f8cecc;strokeColor=#b85450;" vertex="1" parent="1">
          <mxGeometry x="130" y="290" width="150" height="90" as="geometry" />
        </mxCell>
        <mxCell id="ST-d2-YdZwGzM8Qvo2rC-19" value="" style="endArrow=none;html=1;rounded=0;exitX=0.25;exitY=1;exitDx=0;exitDy=0;entryX=0.447;entryY=-0.011;entryDx=0;entryDy=0;entryPerimeter=0;" edge="1" parent="1" source="ST-d2-YdZwGzM8Qvo2rC-1" target="ST-d2-YdZwGzM8Qvo2rC-18">
          <mxGeometry width="50" height="50" relative="1" as="geometry">
            <mxPoint x="220" y="210" as="sourcePoint" />
            <mxPoint x="174" y="149" as="targetPoint" />
          </mxGeometry>
        </mxCell>
        <mxCell id="ST-d2-YdZwGzM8Qvo2rC-21" value="" style="group" vertex="1" connectable="0" parent="1">
          <mxGeometry x="570" y="190" width="140" height="80" as="geometry" />
        </mxCell>
        <mxCell id="ST-d2-YdZwGzM8Qvo2rC-20" value="" style="rounded=0;whiteSpace=wrap;html=1;fillColor=#dae8fc;strokeColor=#6c8ebf;movable=1;resizable=1;rotatable=1;deletable=1;editable=1;locked=0;connectable=1;" vertex="1" parent="ST-d2-YdZwGzM8Qvo2rC-21">
          <mxGeometry width="140" height="80" as="geometry" />
        </mxCell>
        <mxCell id="ST-d2-YdZwGzM8Qvo2rC-2" value="profile" style="rounded=0;whiteSpace=wrap;html=1;fillColor=#dae8fc;strokeColor=#6c8ebf;movable=1;resizable=1;rotatable=1;deletable=1;editable=1;locked=0;connectable=1;" vertex="1" parent="ST-d2-YdZwGzM8Qvo2rC-21">
          <mxGeometry x="10" y="10" width="120" height="60" as="geometry" />
        </mxCell>
        <mxCell id="ST-d2-YdZwGzM8Qvo2rC-24" value="" style="endArrow=none;html=1;rounded=0;strokeWidth=1;shape=link;exitX=1;exitY=0.5;exitDx=0;exitDy=0;entryX=0;entryY=0.5;entryDx=0;entryDy=0;" edge="1" parent="1" source="ST-d2-YdZwGzM8Qvo2rC-1" target="ST-d2-YdZwGzM8Qvo2rC-20">
          <mxGeometry width="50" height="50" relative="1" as="geometry">
            <mxPoint x="560" y="370" as="sourcePoint" />
            <mxPoint x="610" y="320" as="targetPoint" />
          </mxGeometry>
        </mxCell>
      </root>
    </mxGraphModel>
  </diagram>
</mxfile>
